# xmcd
#
# Track frame offsets: 
#        150
#        12792
#        23475
#        39007
#        60572
#        74067
#        89002
#        103992
#        124110
#        140737
#        155307
#        172772
#        194772
#        216915
#        239032
#        256762
#        272450
#        291645
#        309605
#
# Disc length: 4364 seconds
#
# Revision: 1
# Processed by: cddbd v1.5.2PL0 Copyright (c) Steve Scherf et al.
# Submitted via: ExactAudioCopy v1.3
#
DISCID=1b110a13
DTITLE=Various Artist - Epic 50th Anniversary Collection Disc 4
DYEAR=2003
DGENRE=R&B
TTITLE0=Major Lance - The Monkey Time
TTITLE1=Sly And The Family Stone - Everyday People
TTITLE2=Harold Melvin And The Blue Notes - If You Don't Know Me By Now
TTITLE3=Billy Paul - Me And Mrs. Jones
TTITLE4=O'Jays - Love Train
TTITLE5=LaBelle - Lady Marmalade
TTITLE6=Isley Brothers - Fight The Power Part 1
TTITLE7=Lou Rawls - You'll Never Find Another Love Like Mine
TTITLE8=Heatwave - Boogie Nights
TTITLE9=S.O.S. Band - Take Your Time (Do It Right)
TTITLE10=Luther Vandross - Never Too Much
TTITLE11=Teena Marie - Lovergirl
TTITLE12=Sade - Smooth Operator
TTITLE13=Babyface - For The Cool In You
TTITLE14=Groove Theory - Tell Me
TTITLE15=Keb Mo - Kindhearted Woman Blues
TTITLE16=Ginuwine - Pony
TTITLE17=Macy Gray - I Try
TTITLE18=Jill Scott - Gettin' In The Way
EXTD=
EXTT0=
EXTT1=
EXTT2=
EXTT3=
EXTT4=
EXTT5=
EXTT6=
EXTT7=
EXTT8=
EXTT9=
EXTT10=
EXTT11=
EXTT12=
EXTT13=
EXTT14=
EXTT15=
EXTT16=
EXTT17=
EXTT18=
PLAYORDER=
